# xmcd CD database file
#
# Track frame offsets:
#	150
#	12257
#	23097
#	33747
#	43877
#	55457
#	68245
#	80597
#	92712
#	107340
#
# Disc length: 1598 seconds
#
# Revision: 0
# Processed by: cddbd v1.4PL0 Copyright (c) Steve Scherf et al.
# Submitted via: CDex 1.40Beta8
#
DISCID=7f063c0a
DTITLE=Jimmy Reed - Greatest Hits
DYEAR=1900
DGENRE=Blues
TTITLE0=Honest I Do
TTITLE1=Oh John
TTITLE2=Go On To School
TTITLE3=Boogie In The Dark
TTITLE4=I'm Nervous
TTITLE5=Caress Me Baby
TTITLE6=My Baby's So Sweet
TTITLE7=Little Rain
TTITLE8=I Was So Young
TTITLE9=Shame, Shame, Shame
EXTD=ID3G: 0
EXTT0=
EXTT1=
EXTT2=
EXTT3=
EXTT4=
EXTT5=
EXTT6=
EXTT7=
EXTT8=
EXTT9=
PLAYORDER=
